<?xml version="1.0" encoding="iso-8859-1"?>
<!-- Generator: Adobe Illustrator 18.0.0, SVG Export Plug-In . SVG Version: 6.00 Build 0)  -->
<!DOCTYPE svg PUBLIC "-//W3C//DTD SVG 1.1//EN" "http://www.w3.org/Graphics/SVG/1.1/DTD/svg11.dtd">
<svg version="1.1" id="Capa_1" xmlns="http://www.w3.org/2000/svg" xmlns:xlink="http://www.w3.org/1999/xlink" x="0px" y="0px"
	 viewBox="0 0 493.781 493.781" style="enable-background:new 0 0 493.781 493.781;" xml:space="preserve">
<path id="oversized-wine-glass" style="fill:#000100;" d="M263.346,431.778V262.843c76.496-8.22,136.078-72.946,136.078-151.619
	c0-28.707-7.972-64.415-21.788-99.029C374.706,4.833,367.57,0,359.643,0H134.138c-7.922,0-15.058,4.833-17.994,12.195
	c-13.816,34.614-21.788,70.322-21.788,99.029c0,78.673,59.587,143.399,136.074,151.619v168.936
	c-51.823,4.241-91.55,27.275-91.55,38.856c0,12.795,48.358,23.147,108.017,23.147c59.654,0,108.013-10.352,108.013-23.147
	C354.91,459.054,315.178,436.015,263.346,431.778z"/>
<g>
</g>
<g>
</g>
<g>
</g>
<g>
</g>
<g>
</g>
<g>
</g>
<g>
</g>
<g>
</g>
<g>
</g>
<g>
</g>
<g>
</g>
<g>
</g>
<g>
</g>
<g>
</g>
<g>
</g>
</svg>
