<?xml version="1.0" encoding="utf-8"?>
<!-- Generator: Adobe Illustrator 19.2.0, SVG Export Plug-In . SVG Version: 6.00 Build 0)  -->
<svg version="1.1" id="Capa_1" xmlns="http://www.w3.org/2000/svg" xmlns:xlink="http://www.w3.org/1999/xlink" x="0px" y="0px"
	 viewBox="0 0 286.4 286.4" style="enable-background:new 0 0 286.4 286.4;" xml:space="preserve">
<g>
	<path d="M272.9,32.6L254,13.7c-5.2-5.2-13.7-5.2-18.9,0L210,44.3c-4.3,4.3-4.8,10.7-2,15.8l-47.6,47.5c-16.4-9.1-47.4-9.7-65.1,7.9
		c-4.4,4.4-7.7,9.5-10.2,14.8c-0.3,0.5-0.7,0.8-0.9,1.4c-2.5,7.1-7.8,11.8-15.3,11.8c-0.3,0-0.6,0.3-1,0.4
		c-14.2,1.8-27.9,7.9-38.7,18.7c-26.1,26-26.1,68.3,0,94.3c26.1,26.1,68.4,26.1,94.5,0c10.9-10.9,16.9-24.5,18.7-38.7
		c0.2-0.3,0.4-0.7,0.4-1c0-7.5,4.8-12.8,11.8-15.3c0.6-0.2,0.9-0.6,1.4-0.9c5.3-2.5,10.4-5.8,14.8-10.2c17.7-17.6,16-49.7,8-65
		l47.6-47.5c5.1,2.8,11.5,2.3,15.8-2l30.7-25.1C278.1,46.2,278.2,37.8,272.9,32.6z"/>
</g>
</svg>
