<?xml version="1.0" encoding="utf-8"?>
<!-- Generator: Adobe Illustrator 19.2.0, SVG Export Plug-In . SVG Version: 6.00 Build 0)  -->
<svg version="1.1" id="Capa_1" xmlns="http://www.w3.org/2000/svg" xmlns:xlink="http://www.w3.org/1999/xlink" x="0px" y="0px"
	 viewBox="0 0 31 31" style="enable-background:new 0 0 31 31;" xml:space="preserve">
<g>
	<path d="M25.5,6.6L25.5,6.6L25.5,6.6C25.5,6.6,25.5,6.6,25.5,6.6z"/>
	<path d="M26.7,15.1c0-0.9,1.1-4.2,1.1-4.2s-2.4,0.9-3,0.9c-0.6,0-1.7-1.3-1.7-2.2c0,0-3.1,3.9-3.8,3.7c-0.6-0.3,1.1-8,1.1-8
		S18.7,6.9,18,6.7c-0.6-0.2-2.5-4.8-2.5-4.8s0-0.1-0.1-0.1c0,0-0.1,0.1-0.1,0.1s-1.8,4.6-2.5,4.8c-0.6,0.2-2.5-1.5-2.5-1.5
		s1.8,7.7,1.2,8C11,13.5,7.9,9.6,7.9,9.6c0,0.9-1,2.2-1.7,2.2c-0.6,0-3-0.9-3-0.9s1.1,3.3,1.1,4.2c0,0.9-1.2,0.9-1.2,1
		c0,0.2,1.2,0.9,2.9,2.4c1.7,1.5,3.3,2.5,3.3,3.2c0,0.6-0.6,2.1-0.6,2.1s5.3-0.9,5.7-1c0.4-0.1,0.9-0.1,0.9,0.8l-0.3,5.4h1.3
		l-0.4-5.4c0-0.9,0.4-0.9,0.8-0.9c0.4,0.1,5.8,1,5.8,1s-0.6-1.5-0.6-2.1c0-0.7,1.6-1.7,3.2-3.3c1.7-1.5,2.9-2.3,2.9-2.4
		C27.9,15.9,26.7,15.9,26.7,15.1z"/>
</g>
</svg>
