<?xml version="1.0" encoding="iso-8859-1"?>
<!-- Generator: Adobe Illustrator 16.0.0, SVG Export Plug-In . SVG Version: 6.00 Build 0)  -->
<!DOCTYPE svg PUBLIC "-//W3C//DTD SVG 1.1//EN" "http://www.w3.org/Graphics/SVG/1.1/DTD/svg11.dtd">
<svg version="1.1" id="Capa_1" xmlns="http://www.w3.org/2000/svg" xmlns:xlink="http://www.w3.org/1999/xlink" x="0px" y="0px"
	 width="447.252px" height="447.252px" viewBox="0 0 447.252 447.252" style="enable-background:new 0 0 447.252 447.252;"
	 xml:space="preserve">
<g>
	<path d="M342.87,115.416h-31.244V25c0-13.785-11.215-25-25-25s-25,11.215-25,25v90.416h-76V25c0-13.785-11.215-25-25-25
		s-25,11.215-25,25v90.416h-31.244c-8.285,0-15,6.717-15,15v45.133c0,8.283,6.715,15,15,15h6.734v101.977
		c0,4.748,2.248,9.216,6.061,12.045l60.951,45.234v82.447c0,8.285,6.715,15,15,15h60.996c8.285,0,15-6.715,15-15v-82.447
		l60.951-45.234c3.812-2.829,6.061-7.297,6.061-12.045V190.549h6.734c8.283,0,15-6.717,15-15v-45.133
		C357.87,122.133,351.153,115.416,342.87,115.416z"/>
</g>
<g>
</g>
<g>
</g>
<g>
</g>
<g>
</g>
<g>
</g>
<g>
</g>
<g>
</g>
<g>
</g>
<g>
</g>
<g>
</g>
<g>
</g>
<g>
</g>
<g>
</g>
<g>
</g>
<g>
</g>
</svg>
