<?xml version="1.0" encoding="iso-8859-1"?>
<!-- Generator: Adobe Illustrator 16.0.0, SVG Export Plug-In . SVG Version: 6.00 Build 0)  -->
<!DOCTYPE svg PUBLIC "-//W3C//DTD SVG 1.1//EN" "http://www.w3.org/Graphics/SVG/1.1/DTD/svg11.dtd">
<svg version="1.1" id="Capa_1" xmlns="http://www.w3.org/2000/svg" xmlns:xlink="http://www.w3.org/1999/xlink" x="0px" y="0px"
	 width="92.11px" height="92.11px" viewBox="0 0 92.11 92.11" style="enable-background:new 0 0 92.11 92.11;" xml:space="preserve"
	>
<g>
	<path d="M90.918,71.498L57.514,38.095c-1.252-1.252-3.108-1.503-4.621-0.784l-3.318-3.319c1.331-1.629,1.256-4.02-0.264-5.538
		c-1.619-1.62-4.243-1.62-5.861,0l-4.964,4.962L18.806,13.739l0.013-0.014l0.507-0.507l-3.83-6.581L6.109,0L5.601,0.508L0.507,5.603
		L0,6.111l6.636,9.388l6.582,3.827l0.507-0.505l0.012-0.014l19.679,19.68l-4.963,4.964c-1.619,1.617-1.62,4.24,0,5.861
		c1.519,1.519,3.911,1.594,5.538,0.263l3.32,3.319c-0.719,1.512-0.468,3.369,0.784,4.621l33.404,33.403
		c1.589,1.589,4.166,1.589,5.755,0l13.665-13.665C92.508,75.665,92.508,73.088,90.918,71.498z"/>
</g>
<g>
</g>
<g>
</g>
<g>
</g>
<g>
</g>
<g>
</g>
<g>
</g>
<g>
</g>
<g>
</g>
<g>
</g>
<g>
</g>
<g>
</g>
<g>
</g>
<g>
</g>
<g>
</g>
<g>
</g>
</svg>
