<?xml version="1.0" encoding="utf-8"?>
<!-- Generator: Adobe Illustrator 19.2.0, SVG Export Plug-In . SVG Version: 6.00 Build 0)  -->
<svg version="1.1" id="Capa_1" xmlns="http://www.w3.org/2000/svg" xmlns:xlink="http://www.w3.org/1999/xlink" x="0px" y="0px"
	 viewBox="0 0 503.8 503.8" style="enable-background:new 0 0 503.8 503.8;" xml:space="preserve">
<style type="text/css">
	.st0{fill:#010002;}
</style>
<g>
	<path class="st0" d="M66.2,275c0.2,9,9.4,16,22,16.9c6.2,1.4,24.2,1.7,72.7,1.7c16.7,0,33.9,0,47.1,0.2c0,0,0.1,0,0.1,0
		c0.5,0,1-0.1,1.5-0.2c24.6-5.7,49.8-11.3,74.2-16.7c48.8-10.9,99.3-22.1,148.1-34.6c0.1,0,0.2-0.1,0.3-0.1
		c18.9-5.8,41.4-24.9,38.5-36.4c-4.5-18-45.2-26.3-85.5-17.4c-18.2,4.2-57.4,13.3-77.9,18.2c-13.4-1.2-122-48.1-146.4-59.1
		c-1.4-0.6-2.9-0.8-4.3-0.4c-5.1,1.2-9,2.1-12.9,3c-3.9,0.9-7.8,1.8-13,3c-2.6,0.6-4.6,2.7-5,5.3c-0.5,2.6,0.7,5.3,2.9,6.7
		c13.9,9.2,55.1,37.1,91.7,62.3c-1.4,0.3-2.8,0.7-4.1,1c-11.8,2.8-19.8,4.8-37,8.7l-37.9-3.5l-66-43.2c-1.6-1-3.5-1.3-5.3-0.9
		L52.1,194c-2,0.5-3.6,1.9-4.5,3.7c-0.8,1.9-0.8,4,0.1,5.8l29.7,57.6C69.2,264.1,66.1,269.9,66.2,275z"/>
</g>
</svg>
