<?xml version="1.0" encoding="iso-8859-1"?>
<!-- Generator: Adobe Illustrator 16.0.0, SVG Export Plug-In . SVG Version: 6.00 Build 0)  -->
<!DOCTYPE svg PUBLIC "-//W3C//DTD SVG 1.1//EN" "http://www.w3.org/Graphics/SVG/1.1/DTD/svg11.dtd">
<svg version="1.1" id="Capa_1" xmlns="http://www.w3.org/2000/svg" xmlns:xlink="http://www.w3.org/1999/xlink" x="0px" y="0px"
	 width="487.688px" height="487.688px" viewBox="0 0 487.688 487.688" style="enable-background:new 0 0 487.688 487.688;"
	 xml:space="preserve">
<g>
	<path d="M487.688,186.469c0-42.247-34.253-76.5-76.5-76.5c-37.753,0-69.051,27.377-75.295,63.352H151.795
		c-6.244-35.974-37.533-63.352-75.295-63.352c-42.247,0-76.5,34.253-76.5,76.5c0,22.883,10.098,43.356,26.02,57.375
		C10.098,257.862,0,278.336,0,301.219c0,42.247,34.253,76.5,76.5,76.5c36.921,0,67.731-26.163,74.913-60.961h184.862
		c7.182,34.798,37.992,60.961,74.913,60.961c42.247,0,76.5-34.253,76.5-76.5c0-22.883-10.098-43.356-26.02-57.375
		C477.59,229.825,487.688,209.352,487.688,186.469z"/>
</g>
<g>
</g>
<g>
</g>
<g>
</g>
<g>
</g>
<g>
</g>
<g>
</g>
<g>
</g>
<g>
</g>
<g>
</g>
<g>
</g>
<g>
</g>
<g>
</g>
<g>
</g>
<g>
</g>
<g>
</g>
</svg>
