<?xml version="1.0" encoding="iso-8859-1"?>
<!-- Generator: Adobe Illustrator 16.0.0, SVG Export Plug-In . SVG Version: 6.00 Build 0)  -->
<!DOCTYPE svg PUBLIC "-//W3C//DTD SVG 1.1//EN" "http://www.w3.org/Graphics/SVG/1.1/DTD/svg11.dtd">
<svg version="1.1" id="Capa_1" xmlns="http://www.w3.org/2000/svg" xmlns:xlink="http://www.w3.org/1999/xlink" x="0px" y="0px"
	 width="892.399px" height="892.399px" viewBox="0 0 892.399 892.399" style="enable-background:new 0 0 892.399 892.399;"
	 xml:space="preserve">
<g>
	<path d="M125.465,711.301h641.47c69.292,0,125.465-56.173,125.465-125.465S836.227,460.37,766.935,460.37
		c-2.555,0-5.09,0.087-7.606,0.236c0.843-6.044,1.288-12.215,1.288-18.491c0-73.301-59.422-132.723-132.725-132.723
		c-9.48,0-18.726,1.002-27.644,2.891c-11.949-74.37-76.41-131.185-154.15-131.185c-77.779,0-142.268,56.874-154.169,131.301
		c-9.082-1.964-18.506-3.007-28.176-3.007c-73.301,0-132.723,59.422-132.723,132.723c0,6.26,0.443,12.414,1.282,18.442
		c-2.267-0.122-4.549-0.188-6.847-0.188C56.173,460.369,0,516.543,0,585.835C0,655.128,56.173,711.301,125.465,711.301z"/>
</g>
<g>
</g>
<g>
</g>
<g>
</g>
<g>
</g>
<g>
</g>
<g>
</g>
<g>
</g>
<g>
</g>
<g>
</g>
<g>
</g>
<g>
</g>
<g>
</g>
<g>
</g>
<g>
</g>
<g>
</g>
</svg>
