<?xml version="1.0" encoding="utf-8"?>
<!-- Generator: Adobe Illustrator 19.1.0, SVG Export Plug-In . SVG Version: 6.00 Build 0)  -->
<svg version="1.1" id="Layer_1" xmlns="http://www.w3.org/2000/svg" xmlns:xlink="http://www.w3.org/1999/xlink" x="0px" y="0px"
	 viewBox="-108 110 32 32" style="enable-background:new -108 110 32 32;" xml:space="preserve">
<style type="text/css">
	.st0{fill:#444444;}
</style>
<path class="st0" d="M-84.4,113.2c-0.2-0.3-0.4-0.5-0.8-0.5H-98c-0.3,0-0.6,0.2-0.8,0.5c-1,1.8-1.5,3.9-1.5,6.1
	c0,2.9,0.9,5.6,2.5,7.6c1.2,1.6,2.8,2.6,4.5,3v8.9h-2.6c-0.5,0-0.9,0.4-0.9,0.9s0.4,0.9,0.9,0.9h8.7c0.5,0,0.9-0.4,0.9-0.9
	s-0.4-0.9-0.9-0.9h-2.6v-8.9c1.7-0.4,3.2-1.5,4.5-3c1.6-2,2.5-4.7,2.5-7.6C-82.9,117.1-83.4,115-84.4,113.2z"/>
</svg>
