<?xml version="1.0" encoding="iso-8859-1"?>
<!-- Generator: Adobe Illustrator 18.0.0, SVG Export Plug-In . SVG Version: 6.00 Build 0)  -->
<!DOCTYPE svg PUBLIC "-//W3C//DTD SVG 1.1//EN" "http://www.w3.org/Graphics/SVG/1.1/DTD/svg11.dtd">
<svg version="1.1" id="Capa_1" xmlns="http://www.w3.org/2000/svg" xmlns:xlink="http://www.w3.org/1999/xlink" x="0px" y="0px"
	 viewBox="0 0 297 297" style="enable-background:new 0 0 297 297;" xml:space="preserve">
<path d="M276.33,0h-63.913c-5.515,0-9.986,4.472-9.986,9.986v149.168c0,29.745-24.193,53.945-53.931,53.945
	s-53.931-24.2-53.931-53.945V9.986C94.569,4.472,90.099,0,84.583,0H20.67c-5.515,0-9.987,4.472-9.987,9.986v149.168
	C10.683,235.162,72.507,297,148.5,297s137.817-61.838,137.817-137.846V9.986C286.317,4.472,281.846,0,276.33,0z M266.344,19.974
	v36.559h-43.941V19.974H266.344z M74.597,19.974v36.559h-43.94V19.974H74.597z M148.5,277.026
	c-64.979,0-117.844-52.877-117.844-117.872V76.506h43.94v82.648c0,40.759,33.152,73.919,73.903,73.919s73.903-33.16,73.903-73.919
	V76.506h43.941v82.648C266.344,224.149,213.48,277.026,148.5,277.026z"/>
<g>
</g>
<g>
</g>
<g>
</g>
<g>
</g>
<g>
</g>
<g>
</g>
<g>
</g>
<g>
</g>
<g>
</g>
<g>
</g>
<g>
</g>
<g>
</g>
<g>
</g>
<g>
</g>
<g>
</g>
</svg>
