<?xml version="1.0" encoding="iso-8859-1"?>
<!-- Generator: Adobe Illustrator 17.1.0, SVG Export Plug-In . SVG Version: 6.00 Build 0)  -->
<!DOCTYPE svg PUBLIC "-//W3C//DTD SVG 1.1//EN" "http://www.w3.org/Graphics/SVG/1.1/DTD/svg11.dtd">
<svg version="1.1" id="Capa_1" xmlns="http://www.w3.org/2000/svg" xmlns:xlink="http://www.w3.org/1999/xlink" x="0px" y="0px"
	 viewBox="0 0 217 217" style="enable-background:new 0 0 217 217;" xml:space="preserve">
<path d="M217,97.815v21.369c0,9.02-7.338,16.357-16.356,16.357h-6.31v46.063c0,3.76-2.723,7.14-6.449,7.636
	c-0.358,0.048-0.715,0.071-1.066,0.071c-3.268,0-6.15-2.019-7.072-5.237c-0.554-1.226-6.911-14.065-36.6-31.503
	c-22.555-13.248-46.086-16.404-58.202-17.102c-2.067,5.324-7.232,9.114-13.277,9.114h-2.001l4.198,24.792
	c0.523,3.083-0.335,6.223-2.354,8.613c-2.02,2.391-4.973,3.762-8.103,3.762H50.707c-5.192,0-9.59-3.716-10.456-8.835l-4.798-28.332
	H28c-7.857,0-14.25-6.393-14.25-14.25v-0.208h-1.768C5.375,130.125,0,124.75,0,118.143V98.856c0-6.606,5.375-11.981,11.982-11.981
	h1.768v-0.208c0-7.857,6.393-14.25,14.25-14.25h43.667c6.045,0,11.21,3.79,13.277,9.114c12.116-0.698,35.647-3.854,58.202-17.102
	c29.688-17.437,36.046-30.277,36.6-31.503c1.021-3.564,4.447-5.657,8.139-5.166c3.727,0.496,6.449,3.876,6.449,7.636v46.062h6.31
	C209.662,81.458,217,88.796,217,97.815z"/>
<g>
</g>
<g>
</g>
<g>
</g>
<g>
</g>
<g>
</g>
<g>
</g>
<g>
</g>
<g>
</g>
<g>
</g>
<g>
</g>
<g>
</g>
<g>
</g>
<g>
</g>
<g>
</g>
<g>
</g>
</svg>
