<?xml version="1.0" encoding="iso-8859-1"?>
<!-- Generator: Adobe Illustrator 16.0.0, SVG Export Plug-In . SVG Version: 6.00 Build 0)  -->
<!DOCTYPE svg PUBLIC "-//W3C//DTD SVG 1.1//EN" "http://www.w3.org/Graphics/SVG/1.1/DTD/svg11.dtd">
<svg version="1.1" id="Capa_1" xmlns="http://www.w3.org/2000/svg" xmlns:xlink="http://www.w3.org/1999/xlink" x="0px" y="0px"
	 width="31.891px" height="31.891px" viewBox="0 0 31.891 31.891" style="enable-background:new 0 0 31.891 31.891;"
	 xml:space="preserve">
<g>
	<path d="M28.096,7.828c-2.101,0-3.804,1.702-3.804,3.801c0,0.252,0.025,0.499,0.074,0.738l-4.806,4.328
		c-0.407-0.149-0.85-0.231-1.312-0.231c-0.176,0-0.35,0.012-0.52,0.032l-2.726-3.641c0.131-0.385,0.201-0.798,0.201-1.227
		c0-2.1-1.702-3.801-3.8-3.801c-2.098,0-3.8,1.702-3.8,3.801c0,0.485,0.089,0.948,0.256,1.375l-3.128,3.572
		c-0.299-0.074-0.609-0.113-0.93-0.113C1.703,16.462,0,18.163,0,20.263c0,2.101,1.703,3.801,3.801,3.801
		c2.1,0,3.802-1.7,3.802-3.801c0-0.319-0.04-0.629-0.114-0.926l3.446-3.936c0.153,0.019,0.31,0.029,0.468,0.029
		c0.213,0,0.421-0.018,0.623-0.051l2.66,3.551c-0.156,0.414-0.24,0.863-0.24,1.332c0,2.101,1.702,3.801,3.799,3.801
		c2.101,0,3.802-1.7,3.802-3.801c0-0.184-0.013-0.362-0.037-0.539l4.955-4.462c0.354,0.11,0.731,0.169,1.125,0.169
		c2.098,0,3.801-1.702,3.801-3.801C31.895,9.53,30.193,7.828,28.096,7.828z"/>
</g>
<g>
</g>
<g>
</g>
<g>
</g>
<g>
</g>
<g>
</g>
<g>
</g>
<g>
</g>
<g>
</g>
<g>
</g>
<g>
</g>
<g>
</g>
<g>
</g>
<g>
</g>
<g>
</g>
<g>
</g>
</svg>
