<?xml version="1.0" encoding="utf-8"?>
<!-- Generator: Adobe Illustrator 19.2.0, SVG Export Plug-In . SVG Version: 6.00 Build 0)  -->
<svg version="1.1" id="Capa_1" xmlns="http://www.w3.org/2000/svg" xmlns:xlink="http://www.w3.org/1999/xlink" x="0px" y="0px"
	 viewBox="0 0 454.2 454.2" style="enable-background:new 0 0 454.2 454.2;" xml:space="preserve">
<g>
	<path d="M133.1,268.3c-1.9,36-3.9,93.9,0.4,131c2.1,17.9,19.7,22.1,30.6,7.7c12.6-16.6,29.6-43.8,48.7-87.3
		c7.3-16.5,17.8-16.5,25.1,0c19.7,44.3,37.8,71.7,51.3,88.2c11.4,14,29.5,9.3,31.6-8.6c4.3-37.1,2.3-95,0.4-131
		c-1-18,5.7-45.1,12.1-62c16.7-44,16.3-88.3,15.9-98.9c0-0.8,0.1-1.6,0.1-2.4c0-37-30-67-67-67c-22.8,0-42.9,11.4-55,28.8
		C215.1,49.4,195,38,172.2,38c-37,0-67,30-67,67c0,0-3.4,50.9,15.8,101.3C127.4,223.2,134,250.3,133.1,268.3z"/>
</g>
</svg>
