<?xml version="1.0" encoding="utf-8"?>
<!-- Generator: Adobe Illustrator 19.2.0, SVG Export Plug-In . SVG Version: 6.00 Build 0)  -->
<svg version="1.1" id="Capa_1" xmlns="http://www.w3.org/2000/svg" xmlns:xlink="http://www.w3.org/1999/xlink" x="0px" y="0px"
	 viewBox="0 0 949.3 949.3" style="enable-background:new 0 0 949.3 949.3;" xml:space="preserve">
<path d="M760.7,353.2l-316-0.4c0,0,18.3-75,21.6-110.1c2.2-24,2.8-47.9-2.8-71.6c-8.2-35.6-17.3-57.8-31.9-85.4
	c-7.8-14.6-22.9-23.7-39.4-23.7h-61.2c-24.6,0-44.6,20-44.5,44.6c0.2,41.2,0.2,96.1-0.7,98c-24,50.5-51.8,99-83.2,145.2
	c-14.3,21.2-29.3,41.7-46.8,60.5c-7.6,8.2-11.8,19-11.8,30.1v388.8c0,11.5,4.4,22.6,12.5,30.9c11.9,12.3,33.3,26.9,68.3,26.9
	c110.5-0.4,289.6-1.4,417-0.5c15.9,0.1,30.7-8.3,38.7-22.1l112.3-192.3c7.6-13.3,11.6-28.5,11.7-43.8l0.6-230.6
	C805.2,373.2,785.3,353.3,760.7,353.2z"/>
</svg>
