<?xml version="1.0" encoding="utf-8"?>
<!-- Generator: Adobe Illustrator 19.2.0, SVG Export Plug-In . SVG Version: 6.00 Build 0)  -->
<svg version="1.1" id="Capa_1" xmlns="http://www.w3.org/2000/svg" xmlns:xlink="http://www.w3.org/1999/xlink" x="0px" y="0px"
	 viewBox="0 0 612 612" style="enable-background:new 0 0 612 612;" xml:space="preserve">
<g>
	<path d="M580,309.3c-13.3-9.6-33.5-15.7-56.2-15.7c-35.1,0-64.3,14.6-71.1,34.1h-2.9c-6.6-19.6-36-34.4-71.2-34.4
		c-22.7,0-42.9,6.1-56.2,15.7v164.8c0,41-33.4,74.4-74.4,74.4c-41,0-74.4-33.4-74.4-74.4c0-9.1,7.3-16.4,16.4-16.4
		s16.4,7.3,16.4,16.4c0,22.9,18.6,41.6,41.6,41.6c22.9,0,41.6-18.6,41.6-41.6V309.4c-13.3-9.6-33.5-15.8-56.2-15.8
		c-35.1,0-64.3,14.6-71.1,34.1h-2.9c-6.6-19.6-36-34.4-71.2-34.4c-22.6,0-42.8,6.1-56.1,15.7C42.7,192.2,152.6,99.3,289.6,92.4V80.1
		c0-9.1,7.3-16.4,16.4-16.4c9.1,0,16.4,7.3,16.4,16.4v12.3C459.5,99.3,569.4,192.3,580,309.3z"/>
</g>
</svg>
